<mxfile host="app.diagrams.net" modified="2021-04-09T12:18:32.955Z" agent="5.0 (Windows NT 6.1; Win64; x64) AppleWebKit/537.36 (KHTML, like Gecko) Chrome/89.0.4389.90 Safari/537.36 OPR/75.0.3969.149" etag="82bbC6G7T4xc3v_Veqv7" version="14.5.4" type="github">
  <diagram id="DX6CJu-j28bai2rnWO5o" name="Page-1">
    <mxGraphModel dx="1825" dy="533" grid="1" gridSize="10" guides="1" tooltips="1" connect="1" arrows="1" fold="1" page="1" pageScale="1" pageWidth="850" pageHeight="1100" math="0" shadow="0">
      <root>
        <mxCell id="0" />
        <mxCell id="1" parent="0" />
        <mxCell id="f2uayq0AP8Yp92N40N18-1" value="T losses&lt;br&gt;Terjatuhnya pesawat Sriwijaya SJY-182" style="rounded=0;whiteSpace=wrap;html=1;" vertex="1" parent="1">
          <mxGeometry x="360" y="40" width="200" height="60" as="geometry" />
        </mxCell>
        <mxCell id="f2uayq0AP8Yp92N40N18-15" value="Specific Control Factor LTA&lt;br&gt;Work instruction dan pengawasan" style="rounded=0;whiteSpace=wrap;html=1;" vertex="1" parent="1">
          <mxGeometry x="160" y="240" width="240" height="60" as="geometry" />
        </mxCell>
        <mxCell id="f2uayq0AP8Yp92N40N18-16" value="Management System Factor LTA&lt;br&gt;Tidak mengikut sertakan sertifikasi teknisi maintenance untuk teknisi" style="rounded=0;whiteSpace=wrap;html=1;" vertex="1" parent="1">
          <mxGeometry x="520" y="240" width="240" height="60" as="geometry" />
        </mxCell>
        <mxCell id="f2uayq0AP8Yp92N40N18-17" value="" style="shape=or;whiteSpace=wrap;html=1;direction=north;" vertex="1" parent="1">
          <mxGeometry x="265" y="331" width="30" height="40" as="geometry" />
        </mxCell>
        <mxCell id="f2uayq0AP8Yp92N40N18-18" value="" style="endArrow=none;html=1;" edge="1" parent="1">
          <mxGeometry width="50" height="50" relative="1" as="geometry">
            <mxPoint x="279.5" y="330" as="sourcePoint" />
            <mxPoint x="279.5" y="300" as="targetPoint" />
          </mxGeometry>
        </mxCell>
        <mxCell id="f2uayq0AP8Yp92N40N18-25" value="" style="group" vertex="1" connectable="0" parent="1">
          <mxGeometry x="100" y="370" width="360" height="81" as="geometry" />
        </mxCell>
        <mxCell id="f2uayq0AP8Yp92N40N18-21" value="" style="endArrow=none;html=1;" edge="1" parent="f2uayq0AP8Yp92N40N18-25">
          <mxGeometry width="50" height="50" relative="1" as="geometry">
            <mxPoint x="180" y="33" as="sourcePoint" />
            <mxPoint x="179.5" as="targetPoint" />
          </mxGeometry>
        </mxCell>
        <mxCell id="f2uayq0AP8Yp92N40N18-22" value="" style="endArrow=none;html=1;" edge="1" parent="f2uayq0AP8Yp92N40N18-25">
          <mxGeometry width="50" height="50" relative="1" as="geometry">
            <mxPoint y="31" as="sourcePoint" />
            <mxPoint x="360" y="31" as="targetPoint" />
          </mxGeometry>
        </mxCell>
        <mxCell id="f2uayq0AP8Yp92N40N18-23" value="" style="endArrow=none;html=1;" edge="1" parent="f2uayq0AP8Yp92N40N18-25">
          <mxGeometry width="50" height="50" relative="1" as="geometry">
            <mxPoint y="81" as="sourcePoint" />
            <mxPoint y="31" as="targetPoint" />
          </mxGeometry>
        </mxCell>
        <mxCell id="f2uayq0AP8Yp92N40N18-24" value="" style="endArrow=none;html=1;" edge="1" parent="f2uayq0AP8Yp92N40N18-25">
          <mxGeometry width="50" height="50" relative="1" as="geometry">
            <mxPoint x="360" y="81" as="sourcePoint" />
            <mxPoint x="360" y="31" as="targetPoint" />
          </mxGeometry>
        </mxCell>
        <mxCell id="f2uayq0AP8Yp92N40N18-31" value="SA1 Accident&lt;br&gt;Korban meninggal" style="rounded=0;whiteSpace=wrap;html=1;" vertex="1" parent="1">
          <mxGeometry x="10" y="451" width="180" height="60" as="geometry" />
        </mxCell>
        <mxCell id="f2uayq0AP8Yp92N40N18-32" value="SA2 Stabilisation and Restoration LTA&lt;br&gt;&amp;nbsp;" style="rounded=0;whiteSpace=wrap;html=1;" vertex="1" parent="1">
          <mxGeometry x="370" y="451" width="180" height="60" as="geometry" />
        </mxCell>
        <mxCell id="f2uayq0AP8Yp92N40N18-33" value="" style="group" vertex="1" connectable="0" parent="1">
          <mxGeometry x="280" y="100" width="360" height="140" as="geometry" />
        </mxCell>
        <mxCell id="f2uayq0AP8Yp92N40N18-2" value="" style="shape=xor;whiteSpace=wrap;html=1;direction=north;" vertex="1" parent="f2uayq0AP8Yp92N40N18-33">
          <mxGeometry x="167.5" y="31" width="25" height="36" as="geometry" />
        </mxCell>
        <mxCell id="f2uayq0AP8Yp92N40N18-9" value="" style="endArrow=none;html=1;" edge="1" parent="f2uayq0AP8Yp92N40N18-33">
          <mxGeometry width="50" height="50" relative="1" as="geometry">
            <mxPoint x="180" y="30" as="sourcePoint" />
            <mxPoint x="180" as="targetPoint" />
          </mxGeometry>
        </mxCell>
        <mxCell id="f2uayq0AP8Yp92N40N18-10" value="" style="endArrow=none;html=1;" edge="1" parent="f2uayq0AP8Yp92N40N18-33">
          <mxGeometry width="50" height="50" relative="1" as="geometry">
            <mxPoint x="180" y="92" as="sourcePoint" />
            <mxPoint x="179.5" y="59" as="targetPoint" />
          </mxGeometry>
        </mxCell>
        <mxCell id="f2uayq0AP8Yp92N40N18-12" value="" style="endArrow=none;html=1;" edge="1" parent="f2uayq0AP8Yp92N40N18-33">
          <mxGeometry width="50" height="50" relative="1" as="geometry">
            <mxPoint y="90" as="sourcePoint" />
            <mxPoint x="360" y="90" as="targetPoint" />
          </mxGeometry>
        </mxCell>
        <mxCell id="f2uayq0AP8Yp92N40N18-13" value="" style="endArrow=none;html=1;" edge="1" parent="f2uayq0AP8Yp92N40N18-33">
          <mxGeometry width="50" height="50" relative="1" as="geometry">
            <mxPoint y="140" as="sourcePoint" />
            <mxPoint y="90" as="targetPoint" />
          </mxGeometry>
        </mxCell>
        <mxCell id="f2uayq0AP8Yp92N40N18-14" value="" style="endArrow=none;html=1;" edge="1" parent="f2uayq0AP8Yp92N40N18-33">
          <mxGeometry width="50" height="50" relative="1" as="geometry">
            <mxPoint x="360" y="140" as="sourcePoint" />
            <mxPoint x="360" y="90" as="targetPoint" />
          </mxGeometry>
        </mxCell>
        <mxCell id="f2uayq0AP8Yp92N40N18-35" value="" style="shape=xor;whiteSpace=wrap;html=1;direction=north;" vertex="1" parent="1">
          <mxGeometry x="87.5" y="544" width="25" height="36" as="geometry" />
        </mxCell>
        <mxCell id="f2uayq0AP8Yp92N40N18-36" value="" style="endArrow=none;html=1;" edge="1" parent="1">
          <mxGeometry x="-80" y="513" width="50" height="50" as="geometry">
            <mxPoint x="100" y="543" as="sourcePoint" />
            <mxPoint x="100" y="513" as="targetPoint" />
          </mxGeometry>
        </mxCell>
        <mxCell id="f2uayq0AP8Yp92N40N18-37" value="" style="endArrow=none;html=1;" edge="1" parent="1">
          <mxGeometry x="-80" y="513" width="50" height="50" as="geometry">
            <mxPoint x="100" y="605" as="sourcePoint" />
            <mxPoint x="99.5" y="572" as="targetPoint" />
          </mxGeometry>
        </mxCell>
        <mxCell id="f2uayq0AP8Yp92N40N18-38" value="" style="endArrow=none;html=1;" edge="1" parent="1">
          <mxGeometry x="-80" y="513" width="50" height="50" as="geometry">
            <mxPoint x="-80" y="603" as="sourcePoint" />
            <mxPoint x="280" y="603" as="targetPoint" />
          </mxGeometry>
        </mxCell>
        <mxCell id="f2uayq0AP8Yp92N40N18-39" value="" style="endArrow=none;html=1;" edge="1" parent="1">
          <mxGeometry x="-80" y="513" width="50" height="50" as="geometry">
            <mxPoint x="-80" y="653" as="sourcePoint" />
            <mxPoint x="-80" y="603" as="targetPoint" />
          </mxGeometry>
        </mxCell>
        <mxCell id="f2uayq0AP8Yp92N40N18-40" value="" style="endArrow=none;html=1;" edge="1" parent="1">
          <mxGeometry x="-260" y="513" width="50" height="50" as="geometry">
            <mxPoint x="100" y="653" as="sourcePoint" />
            <mxPoint x="100" y="603" as="targetPoint" />
          </mxGeometry>
        </mxCell>
        <mxCell id="f2uayq0AP8Yp92N40N18-41" value="" style="endArrow=none;html=1;" edge="1" parent="1">
          <mxGeometry x="-80" y="513" width="50" height="50" as="geometry">
            <mxPoint x="280" y="653" as="sourcePoint" />
            <mxPoint x="280" y="603" as="targetPoint" />
          </mxGeometry>
        </mxCell>
        <mxCell id="f2uayq0AP8Yp92N40N18-42" value="SB1 Potentialy Hamful Energy Flown&lt;br&gt;Area kerja terbatas dan lingkungan kerja ekstrim" style="rounded=0;whiteSpace=wrap;html=1;" vertex="1" parent="1">
          <mxGeometry x="-160" y="650" width="160" height="60" as="geometry" />
        </mxCell>
        <mxCell id="f2uayq0AP8Yp92N40N18-43" value="SB2 Vulnerable People or Objects LTA&lt;br&gt;pilot, pramugari, penumpang, bahan bakar" style="rounded=0;whiteSpace=wrap;html=1;" vertex="1" parent="1">
          <mxGeometry x="20" y="650" width="160" height="60" as="geometry" />
        </mxCell>
        <mxCell id="f2uayq0AP8Yp92N40N18-44" value="SB3 Control and Barrier&lt;br&gt;work instruction, pengawasan, dan penghalang pada manusia" style="rounded=0;whiteSpace=wrap;html=1;" vertex="1" parent="1">
          <mxGeometry x="200" y="650" width="160" height="60" as="geometry" />
        </mxCell>
        <mxCell id="f2uayq0AP8Yp92N40N18-52" value="SC1 Control of Work and Process LTA&lt;br&gt;work instruction dan pengawasan&amp;nbsp;" style="rounded=0;whiteSpace=wrap;html=1;" vertex="1" parent="1">
          <mxGeometry y="850" width="200" height="60" as="geometry" />
        </mxCell>
        <mxCell id="f2uayq0AP8Yp92N40N18-53" value="SC2 Barriers LTA&lt;br&gt;Life Vest, Oxygen Mask pada penumpang" style="rounded=0;whiteSpace=wrap;html=1;" vertex="1" parent="1">
          <mxGeometry x="360" y="850" width="200" height="60" as="geometry" />
        </mxCell>
        <mxCell id="f2uayq0AP8Yp92N40N18-54" value="" style="group" vertex="1" connectable="0" parent="1">
          <mxGeometry x="110" y="720" width="360" height="140" as="geometry" />
        </mxCell>
        <mxCell id="f2uayq0AP8Yp92N40N18-55" value="" style="shape=xor;whiteSpace=wrap;html=1;direction=north;" vertex="1" parent="f2uayq0AP8Yp92N40N18-54">
          <mxGeometry x="167.5" y="31" width="25" height="36" as="geometry" />
        </mxCell>
        <mxCell id="f2uayq0AP8Yp92N40N18-56" value="" style="endArrow=none;html=1;" edge="1" parent="f2uayq0AP8Yp92N40N18-54">
          <mxGeometry width="50" height="50" relative="1" as="geometry">
            <mxPoint x="180" y="30" as="sourcePoint" />
            <mxPoint x="180" as="targetPoint" />
          </mxGeometry>
        </mxCell>
        <mxCell id="f2uayq0AP8Yp92N40N18-57" value="" style="endArrow=none;html=1;" edge="1" parent="f2uayq0AP8Yp92N40N18-54">
          <mxGeometry width="50" height="50" relative="1" as="geometry">
            <mxPoint x="180" y="92" as="sourcePoint" />
            <mxPoint x="179.5" y="59" as="targetPoint" />
          </mxGeometry>
        </mxCell>
        <mxCell id="f2uayq0AP8Yp92N40N18-58" value="" style="endArrow=none;html=1;" edge="1" parent="f2uayq0AP8Yp92N40N18-54">
          <mxGeometry width="50" height="50" relative="1" as="geometry">
            <mxPoint y="90" as="sourcePoint" />
            <mxPoint x="360" y="90" as="targetPoint" />
          </mxGeometry>
        </mxCell>
        <mxCell id="f2uayq0AP8Yp92N40N18-59" value="" style="endArrow=none;html=1;" edge="1" parent="f2uayq0AP8Yp92N40N18-54">
          <mxGeometry width="50" height="50" relative="1" as="geometry">
            <mxPoint y="140" as="sourcePoint" />
            <mxPoint y="90" as="targetPoint" />
          </mxGeometry>
        </mxCell>
        <mxCell id="f2uayq0AP8Yp92N40N18-60" value="" style="endArrow=none;html=1;" edge="1" parent="f2uayq0AP8Yp92N40N18-54">
          <mxGeometry width="50" height="50" relative="1" as="geometry">
            <mxPoint x="360" y="140" as="sourcePoint" />
            <mxPoint x="360" y="90" as="targetPoint" />
          </mxGeometry>
        </mxCell>
        <mxCell id="f2uayq0AP8Yp92N40N18-46" value="" style="shape=xor;whiteSpace=wrap;html=1;direction=north;" vertex="1" parent="1">
          <mxGeometry x="97.5" y="931" width="25" height="36" as="geometry" />
        </mxCell>
        <mxCell id="f2uayq0AP8Yp92N40N18-47" value="" style="endArrow=none;html=1;" edge="1" parent="1">
          <mxGeometry x="-70" y="900" width="50" height="50" as="geometry">
            <mxPoint x="110" y="930" as="sourcePoint" />
            <mxPoint x="110" y="900" as="targetPoint" />
          </mxGeometry>
        </mxCell>
        <mxCell id="f2uayq0AP8Yp92N40N18-48" value="" style="endArrow=none;html=1;" edge="1" parent="1">
          <mxGeometry x="-70" y="900" width="50" height="50" as="geometry">
            <mxPoint x="110" y="992" as="sourcePoint" />
            <mxPoint x="109.5" y="959" as="targetPoint" />
          </mxGeometry>
        </mxCell>
        <mxCell id="f2uayq0AP8Yp92N40N18-49" value="" style="endArrow=none;html=1;" edge="1" parent="1">
          <mxGeometry x="-70" y="900" width="50" height="50" as="geometry">
            <mxPoint x="-70" y="990" as="sourcePoint" />
            <mxPoint x="640" y="990" as="targetPoint" />
          </mxGeometry>
        </mxCell>
        <mxCell id="f2uayq0AP8Yp92N40N18-50" value="" style="endArrow=none;html=1;" edge="1" parent="1">
          <mxGeometry x="-70" y="900" width="50" height="50" as="geometry">
            <mxPoint x="-70" y="1040" as="sourcePoint" />
            <mxPoint x="-70" y="990" as="targetPoint" />
          </mxGeometry>
        </mxCell>
        <mxCell id="f2uayq0AP8Yp92N40N18-51" value="" style="endArrow=none;html=1;" edge="1" parent="1">
          <mxGeometry x="-250" y="900" width="50" height="50" as="geometry">
            <mxPoint x="110" y="1040" as="sourcePoint" />
            <mxPoint x="110" y="990" as="targetPoint" />
          </mxGeometry>
        </mxCell>
        <mxCell id="f2uayq0AP8Yp92N40N18-61" value="" style="endArrow=none;html=1;" edge="1" parent="1">
          <mxGeometry x="-70.5" y="900" width="50" height="50" as="geometry">
            <mxPoint x="289.5" y="1040" as="sourcePoint" />
            <mxPoint x="289.5" y="990" as="targetPoint" />
          </mxGeometry>
        </mxCell>
        <mxCell id="f2uayq0AP8Yp92N40N18-62" value="" style="endArrow=none;html=1;" edge="1" parent="1">
          <mxGeometry x="120" y="900" width="50" height="50" as="geometry">
            <mxPoint x="480" y="1040" as="sourcePoint" />
            <mxPoint x="480" y="990" as="targetPoint" />
          </mxGeometry>
        </mxCell>
        <mxCell id="f2uayq0AP8Yp92N40N18-63" value="" style="endArrow=none;html=1;" edge="1" parent="1">
          <mxGeometry x="279" y="900" width="50" height="50" as="geometry">
            <mxPoint x="639" y="1040" as="sourcePoint" />
            <mxPoint x="639" y="990" as="targetPoint" />
          </mxGeometry>
        </mxCell>
        <mxCell id="f2uayq0AP8Yp92N40N18-64" value="SD1 Technical Information Systems LTA&lt;br&gt;Safety briefing secara general" style="rounded=0;whiteSpace=wrap;html=1;" vertex="1" parent="1">
          <mxGeometry x="-150" y="1040" width="160" height="60" as="geometry" />
        </mxCell>
        <mxCell id="f2uayq0AP8Yp92N40N18-65" value="SD2 Operational Readiness LTA&lt;br&gt;" style="rounded=0;whiteSpace=wrap;html=1;" vertex="1" parent="1">
          <mxGeometry x="30" y="1040" width="160" height="60" as="geometry" />
        </mxCell>
        <mxCell id="f2uayq0AP8Yp92N40N18-66" value="SD3 Inspection LTA" style="rounded=0;whiteSpace=wrap;html=1;" vertex="1" parent="1">
          <mxGeometry x="210" y="1040" width="160" height="60" as="geometry" />
        </mxCell>
        <mxCell id="f2uayq0AP8Yp92N40N18-67" value="SD4 Maintenances LTA&lt;br&gt;" style="rounded=0;whiteSpace=wrap;html=1;" vertex="1" parent="1">
          <mxGeometry x="390" y="1040" width="160" height="60" as="geometry" />
        </mxCell>
        <mxCell id="f2uayq0AP8Yp92N40N18-68" value="SB1 Potentialy Hamful Energy Flown&lt;br&gt;Area kerja terbatas dan lingkungan kerja ekstrim" style="rounded=0;whiteSpace=wrap;html=1;" vertex="1" parent="1">
          <mxGeometry x="570" y="1040" width="160" height="60" as="geometry" />
        </mxCell>
      </root>
    </mxGraphModel>
  </diagram>
</mxfile>
